HIERARCHY
ROOT Hips
{
  OFFSET 196.326 95.9168 97.7182
  CHANNELS 6 Xposition Yposition Zposition Zrotation Xrotation Yrotation
  JOINT LeftUpLeg
  {
    OFFSET 8.64259 1.95398 -2.38835
    CHANNELS 3 Zrotation Xrotation Yrotation
    JOINT LeftLeg
    {
      OFFSET 43.7702 0 0
      CHANNELS 3 Zrotation Xrotation Yrotation
      JOINT LeftFoot
      {
        OFFSET 40.6238 0 0
        CHANNELS 3 Zrotation Xrotation Yrotation
        JOINT LeftToeBase
        {
          OFFSET 12.7242 0 0
          CHANNELS 3 Zrotation Xrotation Yrotation
          End Site
          {
            OFFSET 0 0 0
          }
        }
      }
    }
  }
  JOINT RightUpLeg
  {
    OFFSET -8.2249 1.95398 -2.59336
    CHANNELS 3 Zrotation Xrotation Yrotation
    JOINT RightLeg
    {
      OFFSET 43.5653 0 0
      CHANNELS 3 Zrotation Xrotation Yrotation
      JOINT RightFoot
      {
        OFFSET 40.6238 0 0
        CHANNELS 3 Zrotation Xrotation Yrotation
        JOINT RightToeBase
        {
          OFFSET 12.7242 0 0
          CHANNELS 3 Zrotation Xrotation Yrotation
          End Site
          {
            OFFSET 0 0 0
          }
        }
      }
    }
  }
  JOINT Spine
  {
    OFFSET 0.165834 0.87714 6.61349
    CHANNELS 3 Zrotation Xrotation Yrotation
    JOINT Spine1
    {
      OFFSET 7.38963 1.71661e-005 0
      CHANNELS 3 Zrotation Xrotation Yrotation
      JOINT Spine2
      {
        OFFSET 11.9445 1.14441e-005 0
        CHANNELS 3 Zrotation Xrotation Yrotation
        JOINT Spine3
        {
          OFFSET 14.7254 4.19617e-005 0
          CHANNELS 3 Zrotation Xrotation Yrotation
          JOINT Spine4
          {
            OFFSET 10.9679 0 0
            CHANNELS 3 Zrotation Xrotation Yrotation
            JOINT RightShoulder
            {
              OFFSET 2.46616 -1.6653 3.69651
              CHANNELS 3 Zrotation Xrotation Yrotation
              JOINT RightArm
              {
                OFFSET 13.0012 0 0
                CHANNELS 3 Zrotation Xrotation Yrotation
                JOINT RightForeArm
                {
                  OFFSET 28.7848 1.52588e-005 0
                  CHANNELS 3 Zrotation Xrotation Yrotation
                  JOINT RightHand
                  {
                    OFFSET 26.5688 1.52588e-005 0
                    CHANNELS 3 Zrotation Xrotation Yrotation
                    End Site
                    {
                      OFFSET 0 0 0
                    }
                  }
                }
              }
            }
            JOINT LeftShoulder
            {
              OFFSET 2.38034 -1.29275 -3.75231
              CHANNELS 3 Zrotation Xrotation Yrotation
              JOINT LeftArm
              {
                OFFSET 16.3182 6.10351e-005 0
                CHANNELS 3 Zrotation Xrotation Yrotation
                JOINT LeftForeArm
                {
                  OFFSET 27.0901 0 0
                  CHANNELS 3 Zrotation Xrotation Yrotation
                  JOINT LeftHand
                  {
                    OFFSET 24.5451 1.52588e-005 0
                    CHANNELS 3 Zrotation Xrotation Yrotation
                    End Site
                    {
                      OFFSET 0 0 0
                    }
                  }
                }
              }
            }
            JOINT Neck
            {
              OFFSET 5.0226 -0.0266342 0
              CHANNELS 3 Zrotation Xrotation Yrotation
              JOINT Head
              {
                OFFSET 6.69363 2.86102e-005 0
                CHANNELS 3 Zrotation Xrotation Yrotation
                End Site
                {
                  OFFSET 0 0 0
                }
              }
            }
          }
        }
      }
    }
  }
}
MOTION
Frames:	15
Frame Time:	0.0416667
-23.7802 80.3178 9.21153 -5.98441 -64.7324 -4.20431 -133.049 70.995 73.716 -33.4776 11.2544 -12.6165 52.2591 -2.59019 6.31149 27.7988 0.507727 -13.2888 163.207 66.0649 99.3107 -70.2107 7.92887 -0.00866978 79.0384 -8.97077 -3.75755 47.9339 3.4605 21.287 0.308523 12.8521 -89.9427 1.16905 0.637368 0.133618 -10.5017 0.642625 0.105426 -33.0379 0.567733 0.318986 -13.0252 0.567741 0.318997 81.6603 -27.4169 -124.411 12.6188 24.6619 -48.4897 19.9088 29.0796 -43.5136 -10.0701 0.0896157 -5.57904 -115.682 -32.53 31.0321 15.6423 -21.2987 -40.5041 -14.2594 -42.8292 -26.199 14.0407 -0.732911 -8.85368 22.0888 9.91808 12.1471 24.6527 6.17183 2.12406 
-17.633 82.2273 15.289 -9.94819 -60.2651 -5.39853 -118.683 73.1554 60.1901 -42.3177 10.9309 -13.3145 57.2069 2.5584 12.7347 44.2595 15.4099 -10.1403 171.614 63.3175 92.6387 -63.5486 8.6601 -0.880831 75.9665 -8.337 -3.6869 54.2451 4.47349 17.6312 0.407353 12.4996 -89.8726 1.87335 0.862387 0.269321 -9.79734 0.873406 0.231095 -32.3341 0.741576 0.516063 -12.3214 0.741575 0.516043 79.8938 -31.7853 -124.978 13.7848 26.8483 -47.0349 20.0287 29.9631 -45.1911 -9.27647 0.113058 -5.35385 -115.486 -32.2771 31.1351 4.33547 -23.4315 -42.3994 -10.2001 -29.8903 -32.132 13.0849 -0.101998 -4.45439 23.7559 11.0904 12.1778 24.9163 7.0093 1.75641 
-11.7895 83.4804 21.7117 -10.886 -55.9664 -5.00358 -105.571 72.8326 46.0221 -49.8188 10.0376 -12.3064 61.757 5.92535 12.6326 46.4184 17.4395 -9.85458 179.118 59.8385 85.8859 -56.5851 8.85324 -2.41868 73.4416 -8.00692 -3.72128 58.0526 4.21198 12.1104 0.332645 12.0376 -89.5195 2.79378 0.853172 0.94976 -8.87721 0.894145 0.911288 -31.4106 0.528311 1.16224 -11.3979 0.528311 1.16224 76.6402 -36.8449 -127.566 10.2728 29.2832 -40.9499 22.8743 29.9054 -48.649 -8.77689 0.297069 -7.71614 -114.687 -31.9026 32.0531 7.77629 -17.1667 -41.6639 -13.5063 -29.2684 -33.9208 17.1239 -0.336377 -5.84305 24.2944 11.1615 8.33286 26.7944 8.88401 3.46509 
-5.55695 84.4954 28.5639 -10.8196 -53.8203 -3.35175 -108.74 71.5074 46.6975 -53.1158 13.4642 -12.1329 63.0085 9.4241 17.9612 53.0593 22.5437 -13.2244 -174.893 54.0962 80.7686 -49.933 9.20215 -4.7148 67.4705 -6.32949 -3.27923 59.7303 3.90114 9.28972 0.387151 11.758 -89.446 3.35155 0.993764 1.08878 -8.31943 1.04072 1.04398 -30.8523 0.620628 1.33709 -10.8396 0.620633 1.33707 76.0757 -39.4096 -127.002 11.3829 32.9245 -32.9168 25.8893 26.9402 -56.985 -7.81377 0.327278 -7.84334 -113.474 -31.8855 33.8811 2.86796 -11.7638 -44.1656 -14.2887 -23.1647 -40.4714 22.4047 -0.0165978 -4.05101 25.198 12.4234 8.65248 26.6485 10.319 4.79329 
1.26006 85.4028 34.9536 -12.8988 -54.2962 -1.61455 -120.402 70.0663 56.7511 -56.5873 12.0937 -10.9631 67.2685 13.0047 17.3039 53.7694 22.5449 -15.4028 -170.144 47.7438 79.2756 -44.6158 7.6096 -7.31263 54.492 -3.08306 -1.73494 59.3149 3.70061 9.08592 0.487665 11.4338 -89.579 4.00052 1.14429 0.819151 -7.67013 1.17923 0.767978 -30.2057 0.845203 1.12518 -10.193 0.845212 1.12517 74.1203 -43.1012 -128.021 3.76582 31.3545 -20.9247 31.9745 27.7954 -61.6128 -4.79391 0.452682 -10.4252 -110.857 -31.5884 37.7265 -6.24712 -4.64833 -42.2341 -11.4148 -14.11 -50.736 25.0299 0.449156 -2.10081 22.9334 13.7616 8.61879 27.0855 12.0368 5.46986 
8.01826 85.809 41.0932 -12.6913 -55.1733 2.63302 -132.454 68.2619 65.8887 -58.6155 14.3176 -9.23961 66.2602 14.2185 20.6728 58.8316 25.8913 -17.8865 -165.227 45.0678 78.9975 -45.8748 4.00706 -9.81773 43.2209 0.255673 0.836525 31.2075 -0.01087 3.8649 0.415468 10.9765 -89.9051 4.92009 0.869192 0.17248 -6.75054 0.875939 0.134045 -29.2876 0.777171 0.42576 -9.27494 0.777168 0.425743 74.316 -45.0394 -126.673 -0.44196 28.9038 -8.00805 37.6602 25.2377 -68.2714 -2.66464 0.470189 -10.8286 -108.299 -31.1753 41.524 -12.4228 4.80397 -37.302 -8.11199 -8.03087 -63.6682 28.666 2.25301 4.05535 21.3035 14.7111 6.72015 28.1248 13.5004 4.70717 
14.2972 85.9239 47.5037 -9.50398 -56.4742 7.83802 -143.824 63.6227 73.4483 -59.0727 15.8693 -7.8217 65.2976 14.2979 21.4899 63.6633 29.4167 -18.6781 -162.886 45.5445 79.6588 -53.7751 -4.25063 -10.9679 40.0561 2.70625 3.00963 25.5384 -1.54391 14.9797 0.110514 10.5665 -90.1403 5.74112 0.162179 -0.280046 -5.92987 0.149698 -0.286926 -28.465 0.238838 -0.21836 -8.45229 0.238848 -0.21837 75.2969 -47.7268 -123.845 -4.27071 26.5409 3.09191 40.7117 22.0748 -73.1622 1.98845 0.392565 -12.9528 -106.035 -30.3861 44.7176 -14.1094 16.3543 -32.3999 -3.07629 -5.35925 -75.135 31.9704 3.14921 6.09206 21.9987 15.8692 0.775981 24.9316 17.2399 7.89747 
20.553 86.0962 53.7871 -6.73823 -58.0766 12.1207 -151.438 56.7511 78.4071 -57.4051 14.519 -7.2314 65.0195 13.1517 18.9141 68.2037 32.9936 -18.632 -165.678 48.2092 83.0662 -59.4981 -2.96871 -9.09679 44.3564 1.8963 2.06166 31.1768 -0.527709 16.2446 -0.24481 10.2314 -90.352 6.4084 -0.6382 -0.670246 -5.26258 -0.667077 -0.64153 -27.7968 -0.407274 -0.831062 -7.78418 -0.407263 -0.831072 78.6678 -46.1366 -119.539 -3.59333 24.9176 11.904 41.9712 18.5198 -77.4046 5.87425 0.222269 -14.7054 -103.874 -29.3254 47.6852 -14.7608 28.5041 -28.4099 0.826694 -7.5145 -85.9543 29.9644 3.73753 8.80635 20.8588 16.666 -1.93839 22.756 18.9399 8.78598 
27.3358 87.0952 60.0867 -4.93757 -59.53 15.5188 -157.248 47.9656 82.2291 -51.1882 13.4175 -7.33429 62.4858 9.81418 15.6411 71.6554 35.9559 -18.1325 -171.294 51.7673 88.5891 -61.959 -3.00043 -6.36991 49.4607 1.15291 1.20589 35.3414 0.304575 14.4645 -0.632331 9.97464 -90.556 6.91735 -1.50104 -1.03203 -4.75312 -1.545 -0.964961 -27.2893 -1.12151 -1.43542 -7.27668 -1.12152 -1.43542 83.0462 -42.9092 -114.038 0.00285603 23.1959 16.1372 40.8999 14.6721 -80.4435 9.116 0.355722 -11.7868 -102.907 -28.6893 48.9558 -16.8711 37.8859 -22.7447 0.464461 -10.3859 -94.4207 25.4632 3.10224 8.46591 19.2611 18.3654 -3.2013 21.13 20.9891 9.50844 
34.2835 88.4395 66.671 -3.70967 -62.7758 16.5448 -162.067 35.7197 84.6021 -40.6395 15.036 -7.53614 54.7769 1.62535 11.3823 78.8588 40.8061 -19.6701 -176.327 53.1688 94.3714 -61.7955 -7.34694 -4.22218 51.8925 1.55493 1.42216 43.3182 1.80314 13.8654 -0.959892 9.97235 -90.5131 6.91966 -2.1369 -0.921712 -4.74979 -2.17539 -0.826747 -27.2926 -1.76112 -1.52142 -7.28 -1.76111 -1.52144 84.5501 -41.5846 -112.111 0.647546 19.885 19.8422 40.8112 12.6614 -81.9685 14.1764 0.196831 -12.346 -102.429 -28.4793 49.6606 -16.643 45.3585 -20.0557 -3.87312 -12.6019 -98.3224 21.2537 2.09997 6.07545 16.7904 19.7788 -4.52115 20.3313 23.0905 11.5503 
40.5848 89.6492 73.2348 2.0508 -64.8287 19.912 -166.686 23.1476 83.7028 -27.0822 15.5182 -5.75942 40.9027 -10.331 -2.07992 93.4801 39.6365 -38.7152 178.091 54.4896 98.8822 -59.8236 -9.75415 -1.376 57.1703 0.640066 0.646548 49.262 2.57474 11.15 -1.42282 9.96872 -90.3953 6.92767 -3.011 -0.65269 -4.73986 -3.03681 -0.519417 -27.297 -2.67556 -1.528 -7.28433 -2.67556 -1.52799 85.1796 -40.0302 -111.666 2.9135 16.6593 23.9837 39.6537 9.85733 -84.5883 15.927 0.210345 -11.8407 -102.502 -29.3375 50.0741 -13.1483 50.4508 -20.924 -7.85067 -14.174 -100.139 11.1527 0.79174 2.89437 14.1811 20.9511 -3.01862 20.6085 23.7947 11.3928 
46.7044 91.0366 79.8422 6.37708 -65.3922 22.6194 -170.283 14.4977 82.8866 -16.8323 21.1204 -3.80036 28.9943 -16.8893 -8.70181 53.9494 22.3614 -17.322 172.874 54.1256 102.964 -51.269 -12.4394 3.18787 58.9021 0.336547 0.510444 56.6651 3.20876 7.97836 -1.80146 9.80693 -90.2779 7.25434 -3.71723 -0.375896 -4.41131 -3.73017 -0.211696 -26.9838 -3.43222 -1.47697 -6.97115 -3.43222 -1.47697 84.6037 -41.4515 -112.076 4.17142 13.1241 26.8309 39.5449 7.06674 -87.0118 19.4126 0.25092 -11.2071 -102.557 -29.9835 50.382 -14.4591 51.2537 -17.8884 -10.9261 -14.2973 -99.4764 -3.41834 -0.0840236 -2.23389 11.4862 21.6836 -3.44312 20.6126 24.8837 12.6485 
52.9635 92.1908 86.64 9.46487 -65.5523 26.5691 -170.519 16.211 84.793 -27.5922 15.8941 -3.41238 36.6932 -11.8837 -3.11877 37.0179 9.02567 -3.1134 171.079 51.3385 105.453 -39.0561 -10.8994 8.86722 56.1245 0.797068 0.998855 60.8815 5.20371 14.3025 -2.03041 9.71177 -90.3919 7.44114 -4.22388 -0.567236 -4.22299 -4.24474 -0.380465 -26.8051 -3.85786 -1.81224 -6.79245 -3.85785 -1.81224 83.6771 -44.223 -112.508 5.46946 7.70487 27.7975 39.1484 5.5126 -89.3343 21.6463 0.409146 -10.2427 -102.959 -30.5252 50.0208 -18.7017 49.0053 -11.7199 -10.49 -13.6117 -97.9352 -14.246 0.132041 -6.33523 10.6202 22.571 -4.89566 19.6751 26.2679 14.0948 
58.591 92.6309 93.1566 13.3844 -65.8141 32.0789 -170.077 22.9704 88.4553 -45.1533 13.6534 -2.5582 45.194 -6.19401 4.87134 44.4646 17.2731 -0.40324 173.5 47.6677 106.993 -31.2206 -6.56012 8.81598 54.549 1.38158 1.35589 58.0293 4.80661 15.0813 -2.08841 9.77454 -90.5335 7.30884 -4.40059 -0.845344 -4.35479 -4.43352 -0.650479 -26.9381 -3.94282 -2.13065 -6.92547 -3.94283 -2.13065 83.0358 -45.8617 -112.894 9.25112 4.04391 27.5384 41.278 7.01841 -88.8321 22.3411 0.46877 -10.2177 -102.057 -31.4981 52.1555 -18.4512 45.237 -10.4777 -12.8902 -12.8047 -97.152 -9.4211 0.291441 -10.5658 11.3185 22.6781 -5.8584 19.133 26.5427 14.1542 
64.0795 92.8748 99.2523 21.4167 -66.7108 38.7936 -169.593 28.8516 90.3155 -57.6289 11.6015 -1.54863 51.4806 -0.649233 10.4997 52.0283 25.0673 -1.32209 176.92 43.2215 104.867 -32.7024 1.58214 5.46593 56.1799 0.565153 0.700128 41.9208 2.00922 21.2768 -2.00709 9.87851 -90.3889 7.10666 -4.17554 -0.581475 -4.55761 -4.19708 -0.396817 -27.1385 -3.80748 -1.81122 -7.12582 -3.80748 -1.81123 81.1311 -50.0561 -114.197 10.1792 1.39672 28.3156 43.398 9.76525 -85.5436 23.1498 0.449157 -10.5515 -102.669 -33.0837 52.0366 -18.2645 38.6498 -8.2587 -12.2297 -11.5598 -96.4219 -6.95245 0.0479879 -7.24003 9.79319 20.9577 -6.10599 20.6273 24.8537 13.0259 
